<svg width="117" height="117" viewBox="0 0 117 117" fill="none" xmlns="http://www.w3.org/2000/svg">
<path d="M77.2435 89.6732L88.5285 108.5L117 59.309L95.0122 58.9736C94.9256 64.9807 93.3448 71.05 90.1195 76.6223C86.8943 82.1947 82.4155 86.5949 77.2435 89.6732Z" fill="#414DA1"/>
<path d="M95.0122 58.9736L58.5081 58.4169L77.2435 89.6732C82.4155 86.5949 86.8943 82.1947 90.1195 76.6223C93.3448 71.05 94.9256 64.9807 95.0122 58.9736Z" fill="#E7A545"/>
<path d="M95.0122 58.9736C95.1962 46.2071 88.6312 33.7216 76.7589 26.8842C59.3003 16.8296 36.9761 22.7965 26.8964 40.2115C16.8167 57.6265 22.7985 79.895 40.257 89.9496C52.1294 96.787 66.2517 96.2155 77.2435 89.6732L58.5081 58.4169L95.0122 58.9736Z" fill="#7E3972"/>
</svg>
